<?xml version="1.0" encoding="UTF-8"?>
<svg width="1920px" height="1080px" viewBox="0 0 1920 1080" version="1.1" xmlns="http://www.w3.org/2000/svg" xmlns:xlink="http://www.w3.org/1999/xlink">
    <title>scoring-engine-kit</title>
    <defs>
        <polygon id="path-1" points="16.5 0 33 11.6666667 29.7 11.6666667 29.7 25 21.45 25 21.45 16.6666667 11.55 16.6666667 11.55 25 3.3 25 3.3 11.6666667 0 11.6666667"></polygon>
        <filter x="-3.0%" y="-4.0%" width="106.1%" height="108.0%" filterUnits="objectBoundingBox" id="filter-2">
            <feGaussianBlur stdDeviation="0.5" in="SourceAlpha" result="shadowBlurInner1"></feGaussianBlur>
            <feOffset dx="1" dy="1" in="shadowBlurInner1" result="shadowOffsetInner1"></feOffset>
            <feComposite in="shadowOffsetInner1" in2="SourceAlpha" operator="arithmetic" k2="-1" k3="1" result="shadowInnerInner1"></feComposite>
            <feColorMatrix values="0 0 0 0 0   0 0 0 0 0   0 0 0 0 0  0 0 0 0.05 0" type="matrix" in="shadowInnerInner1"></feColorMatrix>
        </filter>
        <filter color-interpolation-filters="auto" id="filter-3">
            <feColorMatrix in="SourceGraphic" type="matrix" values="0 0 0 0 0.968627 0 0 0 0 0.576471 0 0 0 0 0.117647 0 0 0 1.000000 0"></feColorMatrix>
        </filter>
        <filter color-interpolation-filters="auto" id="filter-4">
            <feColorMatrix in="SourceGraphic" type="matrix" values="0 0 0 0 0.968627 0 0 0 0 0.576471 0 0 0 0 0.117647 0 0 0 1.000000 0"></feColorMatrix>
        </filter>
        <filter color-interpolation-filters="auto" id="filter-5">
            <feColorMatrix in="SourceGraphic" type="matrix" values="0 0 0 0 0.968627 0 0 0 0 0.576471 0 0 0 0 0.117647 0 0 0 1.000000 0"></feColorMatrix>
        </filter>
        <filter color-interpolation-filters="auto" id="filter-6">
            <feColorMatrix in="SourceGraphic" type="matrix" values="0 0 0 0 0.968627 0 0 0 0 0.576471 0 0 0 0 0.117647 0 0 0 1.000000 0"></feColorMatrix>
        </filter>
        <filter color-interpolation-filters="auto" id="filter-7">
            <feColorMatrix in="SourceGraphic" type="matrix" values="0 0 0 0 0.968627 0 0 0 0 0.576471 0 0 0 0 0.117647 0 0 0 1.000000 0"></feColorMatrix>
        </filter>
        <filter color-interpolation-filters="auto" id="filter-8">
            <feColorMatrix in="SourceGraphic" type="matrix" values="0 0 0 0 0.968627 0 0 0 0 0.576471 0 0 0 0 0.117647 0 0 0 1.000000 0"></feColorMatrix>
        </filter>
    </defs>
    <g id="scoring-engine-kit" stroke="none" stroke-width="1" fill="none" fill-rule="evenodd">
        <rect fill="#FFFFFF" x="0" y="0" width="1920" height="1080"></rect>
        <g id="trees-icon-label-copy-4" transform="translate(384.000000, 307.500000)">
            <path d="M146.96,52.0642857 L146.96,41.6642857 L151.24,41.6642857 C157,41.6642857 160.96,39.1042857 160.96,33.5442857 C160.96,27.7842857 156.96,25.8242857 151.08,25.8242857 L143.6,25.8242857 L143.6,52.0642857 L146.96,52.0642857 Z M150.84,38.9442857 L146.96,38.9442857 L146.96,28.5442857 L150.68,28.5442857 C155.28,28.5442857 157.6,29.7842857 157.6,33.5442857 C157.6,37.2642857 155.4,38.9442857 150.84,38.9442857 Z M170.44,52.5442857 C172.88,52.5442857 175,51.3042857 176.84,49.7442857 L176.96,49.7442857 L177.28,52.0642857 L180,52.0642857 L180,40.1042857 C180,35.3042857 177.96,32.1442857 173.24,32.1442857 C170.12,32.1442857 167.4,33.4642857 165.6,34.6642857 L166.88,36.9042857 C168.4,35.9042857 170.44,34.9042857 172.68,34.9042857 C175.84,34.9042857 176.64,37.2642857 176.68,39.7042857 C168.36,40.6242857 164.76,42.7042857 164.76,47.0242857 C164.76,50.5442857 167.2,52.5442857 170.44,52.5442857 Z M171.36,49.8242857 C169.48,49.8242857 168,48.9842857 168,46.8242857 C168,44.3042857 170.12,42.8242857 176.68,42.0642857 L176.68,47.3442857 C174.8,48.9842857 173.24,49.8242857 171.36,49.8242857 Z M194.16,52.5442857 C198.92,52.5442857 202.72,48.6242857 202.72,42.4242857 C202.72,36.7442857 199.52,33.3442857 194.92,33.3442857 C192.48,33.3442857 190.08,34.4642857 188.36,36.5842857 C188.96,28.5842857 191.64,28.0642857 197.88,27.1442857 C199.52,26.9042857 200.88,26.5442857 201.92,25.8642857 L201.24,22.8642857 C200.04,23.4242857 199.36,23.6242857 197.2,23.9442857 C189.8,25.0642857 185,27.1442857 185,40.2642857 C185,48.1042857 188.36,52.5442857 194.16,52.5442857 Z M194.16,49.7842857 C190.2,49.7842857 188.2,46.5042857 188.2,40.9042857 L188.2,39.3842857 L188.2,39.3842857 C190.16,36.7442857 192.2,35.9042857 194.08,35.9042857 C197.44,35.9042857 199.28,38.4242857 199.28,42.4242857 C199.28,46.8242857 197.16,49.7842857 194.16,49.7842857 Z M215.48,52.5442857 C220.24,52.5442857 224.52,48.8242857 224.52,42.3842857 C224.52,35.8642857 220.24,32.1442857 215.48,32.1442857 C210.72,32.1442857 206.48,35.8642857 206.48,42.3842857 C206.48,48.8242857 210.72,52.5442857 215.48,52.5442857 Z M215.48,49.7842857 C212.16,49.7842857 209.92,46.8242857 209.92,42.3842857 C209.92,37.9042857 212.16,34.9042857 215.48,34.9042857 C218.84,34.9042857 221.08,37.9042857 221.08,42.3842857 C221.08,46.8242857 218.84,49.7842857 215.48,49.7842857 Z M243.56,52.0642857 L243.56,32.6242857 L240.24,32.6242857 L240.24,41.6642857 C239.12,41.9042857 238.24,42.0242857 237.08,42.0242857 C233.56,42.0242857 232,40.8242857 232,37.9442857 L232,32.6242857 L228.68,32.6242857 L228.68,37.9442857 C228.68,42.7842857 231.52,44.7442857 236.44,44.7442857 C238.16,44.7442857 238.88,44.5842857 240.24,44.3442857 L240.24,52.0642857 L243.56,52.0642857 Z M253.68,52.0642857 L260.6,41.1042857 C261.36,39.9042857 262.36,38.1442857 263.12,36.6642857 L263.28,36.6642857 C263.08,39.4642857 262.96,41.8642857 262.96,43.9442857 L262.96,52.0642857 L266.12,52.0642857 L266.12,32.6242857 L262.6,32.6242857 L255.64,43.6242857 C254.88,44.8242857 253.88,46.6242857 253.12,48.0242857 L252.96,48.0242857 C253.16,45.2642857 253.32,42.8242857 253.32,40.7442857 L253.32,32.6242857 L250.12,32.6242857 L250.12,52.0642857 L253.68,52.0642857 Z M280.8,29.1442857 C285.28,29.1442857 286.92,26.1442857 287.08,23.0242857 L284.36,23.0242857 C284.28,25.3042857 283.44,27.1842857 280.8,27.1842857 C278.16,27.1842857 277.32,25.3042857 277.24,23.0242857 L274.52,23.0242857 C274.68,26.1442857 276.32,29.1442857 280.8,29.1442857 Z M276.24,52.0642857 L283.16,41.1042857 C283.92,39.9042857 284.92,38.1442857 285.68,36.6642857 L285.84,36.6642857 C285.64,39.4642857 285.52,41.8642857 285.52,43.9442857 L285.52,52.0642857 L288.68,52.0642857 L288.68,32.6242857 L285.16,32.6242857 L278.2,43.6242857 C277.44,44.8242857 276.44,46.6242857 275.68,48.0242857 L275.52,48.0242857 C275.72,45.2642857 275.88,42.8242857 275.88,40.7442857 L275.88,32.6242857 L272.68,32.6242857 L272.68,52.0642857 L276.24,52.0642857 Z M306.56,52.0642857 L306.56,43.3042857 L310.76,43.3042857 L315.84,52.0642857 L319.44,52.0642857 L313.2,41.8242857 L314.84,38.0242857 C315.84,35.7842857 316.64,35.4642857 317.64,35.4642857 C317.92,35.4642857 318.04,35.5042857 318.28,35.5842857 L318.88,32.4642857 C318.56,32.3042857 318.16,32.2242857 317.72,32.2242857 C315.6,32.2242857 314.12,32.8642857 312.56,36.3042857 L310.64,40.6242857 L306.56,40.6242857 L306.56,32.6242857 L303.28,32.6242857 L303.28,52.0642857 L306.56,52.0642857 Z M327.56,52.5442857 C330,52.5442857 332.12,51.3042857 333.96,49.7442857 L334.08,49.7442857 L334.4,52.0642857 L337.12,52.0642857 L337.12,40.1042857 C337.12,35.3042857 335.08,32.1442857 330.36,32.1442857 C327.24,32.1442857 324.52,33.4642857 322.72,34.6642857 L324,36.9042857 C325.52,35.9042857 327.56,34.9042857 329.8,34.9042857 C332.96,34.9042857 333.76,37.2642857 333.8,39.7042857 C325.48,40.6242857 321.88,42.7042857 321.88,47.0242857 C321.88,50.5442857 324.32,52.5442857 327.56,52.5442857 Z M328.48,49.8242857 C326.6,49.8242857 325.12,48.9842857 325.12,46.8242857 C325.12,44.3042857 327.24,42.8242857 333.8,42.0642857 L333.8,47.3442857 C331.92,48.9842857 330.36,49.8242857 328.48,49.8242857 Z M350.88,52.0642857 L350.88,35.3042857 L357.36,35.3042857 L357.36,32.6242857 L341.04,32.6242857 L341.04,35.3042857 L347.56,35.3042857 L347.56,52.0642857 L350.88,52.0642857 Z M366.16,52.5442857 C368.6,52.5442857 370.72,51.3042857 372.56,49.7442857 L372.68,49.7442857 L373,52.0642857 L375.72,52.0642857 L375.72,40.1042857 C375.72,35.3042857 373.68,32.1442857 368.96,32.1442857 C365.84,32.1442857 363.12,33.4642857 361.32,34.6642857 L362.6,36.9042857 C364.12,35.9042857 366.16,34.9042857 368.4,34.9042857 C371.56,34.9042857 372.36,37.2642857 372.4,39.7042857 C364.08,40.6242857 360.48,42.7042857 360.48,47.0242857 C360.48,50.5442857 362.92,52.5442857 366.16,52.5442857 Z M367.08,49.8242857 C365.2,49.8242857 363.72,48.9842857 363.72,46.8242857 C363.72,44.3042857 365.84,42.8242857 372.4,42.0642857 L372.4,47.3442857 C370.52,48.9842857 368.96,49.8242857 367.08,49.8242857 Z M380.8,52.4242857 C383.64,52.4242857 385.4,50.3042857 385.96,46.0642857 C386.4,42.5042857 386.8,38.9042857 387.24,35.3042857 L393.24,35.3042857 L393.24,52.0642857 L396.56,52.0642857 L396.56,32.6242857 L384.6,32.6242857 C384.12,36.8242857 383.64,41.0242857 383.12,45.2242857 C382.76,47.9842857 381.88,49.2242857 380.52,49.2242857 C380.16,49.2242857 379.88,49.1442857 379.64,49.0642857 L379,52.1042857 C379.56,52.3442857 380.04,52.4242857 380.8,52.4242857 Z M410.68,52.5442857 C415.44,52.5442857 419.72,48.8242857 419.72,42.3842857 C419.72,35.8642857 415.44,32.1442857 410.68,32.1442857 C405.92,32.1442857 401.68,35.8642857 401.68,42.3842857 C401.68,48.8242857 405.92,52.5442857 410.68,52.5442857 Z M410.68,49.7842857 C407.36,49.7842857 405.12,46.8242857 405.12,42.3842857 C405.12,37.9042857 407.36,34.9042857 410.68,34.9042857 C414.04,34.9042857 416.28,37.9042857 416.28,42.3842857 C416.28,46.8242857 414.04,49.7842857 410.68,49.7842857 Z M428.12,52.0642857 L428.12,35.3042857 L436.92,35.3042857 L436.92,32.6242857 L424.8,32.6242857 L424.8,52.0642857 L428.12,52.0642857 Z" id="Рабочийкаталог" fill="#333333" fill-rule="nonzero"></path>
            <g id="folder">
                <path d="M39.1952339,1.36598157 L43.8047661,6.63401843 C44.5643185,7.50207827 45.6616226,8 46.8150729,8 L92,8 C94.209139,8 96,9.790861 96,12 L96,70 L96,70 L4,70 C1.790861,70 -3.72626139e-15,68.209139 0,66 L0,4 C-2.705415e-16,1.790861 1.790861,2.18216909e-15 4,0 L36.1849271,0 C37.3383774,-1.10006381e-15 38.4356815,0.497921729 39.1952339,1.36598157 Z" id="Path" fill="#FCA65C"></path>
                <path d="M58.1952339,14.3659816 L62.8047661,19.6340184 C63.5643185,20.5020783 64.6616226,21 65.8150729,21 L96.1538462,21 C98.3629852,21 100.153846,22.790861 100.153846,25 L100.153846,70 L100.153846,70 L12,70 C9.790861,70 8,68.209139 8,66 L8,17 C8,14.790861 9.790861,13 12,13 L55.1849271,13 C56.3383774,13 57.4356815,13.4979217 58.1952339,14.3659816 Z" id="Path" fill="#73B0DE" transform="translate(54.076923, 41.500000) scale(-1, 1) translate(-54.076923, -41.500000) "></path>
                <path d="M9,58 L9,70 L4,70 L4.19964034,69.9951047 C6.31603153,69.8910789 8,68.1421954 8,66 L8,66 L8,58 L9,58 Z" id="Combined-Shape" fill="#73B0DE"></path>
                <g id="Path" transform="translate(37.000000, 29.000000)">
                    <use fill="#61A2D3" fill-rule="evenodd" xlink:href="#path-1"></use>
                    <use fill="black" fill-opacity="1" filter="url(#filter-2)" xlink:href="#path-1"></use>
                </g>
            </g>
        </g>
        <g id="Arrow/Gray-Circle/L-Shape-Copy-5" transform="translate(474.000000, 437.500000) rotate(-180.000000) translate(-474.000000, -437.500000) translate(424.000000, 388.000000)">
            <path d="M16,10 L90,10 L90,83" id="Path-4" stroke="#9A9FAF" stroke-width="4" stroke-dasharray="6"></path>
            <g id="Start-point" transform="translate(80.000000, 79.000000)" filter="url(#filter-3)">
                <g transform="translate(10.000000, 10.000000) rotate(90.000000) translate(-10.000000, -10.000000) ">
                    <path d="M10,0 C15.5228475,0 20,4.4771525 20,10 C20,15.5228475 15.5228475,20 10,20 C4.4771525,20 0,15.5228475 0,10 C0,4.4771525 4.4771525,0 10,0 Z M10,6 C7.790861,6 6,7.790861 6,10 C6,12.209139 7.790861,14 10,14 C12.209139,14 14,12.209139 14,10 C14,7.790861 12.209139,6 10,6 Z" id="Shape" fill="#F7931E"></path>
                </g>
            </g>
            <g id="Start-point" filter="url(#filter-4)">
                <g transform="translate(10.000000, 10.000000) rotate(90.000000) translate(-10.000000, -10.000000) ">
                    <path d="M10,0 C15.5228475,0 20,4.4771525 20,10 C20,15.5228475 15.5228475,20 10,20 C4.4771525,20 0,15.5228475 0,10 C0,4.4771525 4.4771525,0 10,0 Z M10,6 C7.790861,6 6,7.790861 6,10 C6,12.209139 7.790861,14 10,14 C12.209139,14 14,12.209139 14,10 C14,7.790861 12.209139,6 10,6 Z" id="Shape" fill="#F7931E"></path>
                </g>
            </g>
        </g>
        <g id="trees-icon-label-copy-5" transform="translate(546.000000, 438.500000)">
            <path d="M146.76,52.5442857 C147.6,52.5442857 148.2,52.4242857 148.68,52.1842857 L148.24,49.7042857 C147.92,49.7842857 147.76,49.7842857 147.56,49.7842857 C147.04,49.7842857 146.6,49.4242857 146.6,48.3842857 L146.6,23.5842857 L143.28,23.5842857 L143.28,48.1442857 C143.28,50.9442857 144.28,52.5442857 146.76,52.5442857 Z M155.16,28.6242857 C156.44,28.6242857 157.36,27.7842857 157.36,26.4642857 C157.36,25.1842857 156.44,24.3042857 155.16,24.3042857 C153.88,24.3042857 152.96,25.1842857 152.96,26.4642857 C152.96,27.7842857 153.88,28.6242857 155.16,28.6242857 Z M156.8,52.0642857 L156.8,32.6242857 L153.48,32.6242857 L153.48,52.0642857 L156.8,52.0642857 Z M171.96,52.5442857 C176.4,52.5442857 180.4,48.6642857 180.4,42.0242857 C180.4,36.0242857 177.68,32.1442857 172.68,32.1442857 C170.52,32.1442857 168.36,33.3042857 166.56,34.8242857 L166.68,31.3442857 L166.68,23.5842857 L163.36,23.5842857 L163.36,52.0642857 L166,52.0642857 L166.32,50.0642857 L166.44,50.0642857 C168.16,51.6242857 170.16,52.5442857 171.96,52.5442857 Z M171.4,49.7442857 C170.12,49.7442857 168.36,49.2242857 166.68,47.7442857 L166.68,37.5842857 C168.52,35.8242857 170.2,34.9442857 171.84,34.9442857 C175.48,34.9442857 176.96,37.7842857 176.96,42.0642857 C176.96,46.8642857 174.6,49.7442857 171.4,49.7442857 Z M190.6,52.5442857 C195.2,52.5442857 197.72,49.9042857 197.72,46.7442857 C197.72,43.2242857 194.8,41.9042857 191.76,40.8242857 C189.32,39.9842857 187.64,39.2642857 187.64,37.5042857 C187.64,36.0642857 188.72,34.7042857 191.2,34.7042857 C192.92,34.7042857 194.32,35.2642857 195.68,36.2642857 L197.2,34.3442857 C195.68,33.0642857 193.6,32.1442857 191.16,32.1442857 C186.92,32.1442857 184.44,34.5442857 184.44,37.6642857 C184.44,40.8642857 187.24,42.2642857 190.16,43.3042857 L190.598839,43.4651509 C192.6384,44.2214413 194.52,45.077619 194.52,46.9442857 C194.52,48.6242857 193.28,49.9442857 190.72,49.9442857 C188.32,49.9442857 186.56,49.2242857 184.88,47.8242857 L183.36,49.7442857 C185.16,51.5042857 187.76,52.5442857 190.6,52.5442857 Z" id="libs" fill="#333333" fill-rule="nonzero"></path>
            <g id="folder">
                <path d="M39.1952339,1.36598157 L43.8047661,6.63401843 C44.5643185,7.50207827 45.6616226,8 46.8150729,8 L92,8 C94.209139,8 96,9.790861 96,12 L96,70 L96,70 L4,70 C1.790861,70 -3.72626139e-15,68.209139 0,66 L0,4 C-2.705415e-16,1.790861 1.790861,2.18216909e-15 4,0 L36.1849271,0 C37.3383774,-1.10006381e-15 38.4356815,0.497921729 39.1952339,1.36598157 Z" id="Path" fill="#FCA65C"></path>
                <path d="M58.1952339,14.3659816 L62.8047661,19.6340184 C63.5643185,20.5020783 64.6616226,21 65.8150729,21 L96.1538462,21 C98.3629852,21 100.153846,22.790861 100.153846,25 L100.153846,70 L100.153846,70 L12,70 C9.790861,70 8,68.209139 8,66 L8,17 C8,14.790861 9.790861,13 12,13 L55.1849271,13 C56.3383774,13 57.4356815,13.4979217 58.1952339,14.3659816 Z" id="Path" fill="#73B0DE" transform="translate(54.076923, 41.500000) scale(-1, 1) translate(-54.076923, -41.500000) "></path>
                <path d="M9,58 L9,70 L4,70 L4.19964034,69.9951047 C6.31603153,69.8910789 8,68.1421954 8,66 L8,66 L8,58 L9,58 Z" id="Combined-Shape" fill="#73B0DE"></path>
            </g>
        </g>
        <g id="trees-icon-label" transform="translate(708.000000, 569.500000)">
            <path d="M148.36,52.5442857 C152.96,52.5442857 155.48,49.9042857 155.48,46.7442857 C155.48,43.2242857 152.56,41.9042857 149.52,40.8242857 C147.08,39.9842857 145.4,39.2642857 145.4,37.5042857 C145.4,36.0642857 146.48,34.7042857 148.96,34.7042857 C150.68,34.7042857 152.08,35.2642857 153.44,36.2642857 L154.96,34.3442857 C153.44,33.0642857 151.36,32.1442857 148.92,32.1442857 C144.68,32.1442857 142.2,34.5442857 142.2,37.6642857 C142.2,40.8642857 145,42.2642857 147.92,43.3042857 L148.358839,43.4651509 C150.3984,44.2214413 152.28,45.077619 152.28,46.9442857 C152.28,48.6242857 151.04,49.9442857 148.48,49.9442857 C146.08,49.9442857 144.32,49.2242857 142.64,47.8242857 L141.12,49.7442857 C142.92,51.5042857 145.52,52.5442857 148.36,52.5442857 Z M167.72,52.5442857 C170.04,52.5442857 172.24,51.6642857 174,50.0642857 L172.56,47.9442857 C171.4,48.9842857 169.8,49.7842857 168,49.7842857 C164.44,49.7842857 162.04,46.8242857 162.04,42.3842857 C162.04,37.9042857 164.6,34.9042857 168.12,34.9042857 C169.68,34.9042857 170.92,35.5042857 172,36.5042857 L173.64,34.4242857 C172.28,33.1442857 170.52,32.1442857 167.96,32.1442857 C162.96,32.1442857 158.6,35.8642857 158.6,42.3842857 C158.6,48.8242857 162.56,52.5442857 167.72,52.5442857 Z M185.84,52.5442857 C190.6,52.5442857 194.88,48.8242857 194.88,42.3842857 C194.88,35.8642857 190.6,32.1442857 185.84,32.1442857 C181.08,32.1442857 176.84,35.8642857 176.84,42.3842857 C176.84,48.8242857 181.08,52.5442857 185.84,52.5442857 Z M185.84,49.7842857 C182.52,49.7842857 180.28,46.8242857 180.28,42.3842857 C180.28,37.9042857 182.52,34.9042857 185.84,34.9042857 C189.2,34.9042857 191.44,37.9042857 191.44,42.3842857 C191.44,46.8242857 189.2,49.7842857 185.84,49.7842857 Z M203.28,52.0642857 L203.28,39.5842857 C204.6,36.3042857 206.56,35.1442857 208.2,35.1442857 C208.96,35.1442857 209.4,35.2242857 209.96,35.3842857 L210.68,32.5442857 C210.08,32.2642857 209.48,32.1442857 208.6,32.1442857 C206.44,32.1442857 204.44,33.7042857 203.08,36.1442857 L202.96,36.1442857 L202.68,32.6242857 L199.96,32.6242857 L199.96,52.0642857 L203.28,52.0642857 Z M215.56,28.6242857 C216.84,28.6242857 217.76,27.7842857 217.76,26.4642857 C217.76,25.1842857 216.84,24.3042857 215.56,24.3042857 C214.28,24.3042857 213.36,25.1842857 213.36,26.4642857 C213.36,27.7842857 214.28,28.6242857 215.56,28.6242857 Z M217.2,52.0642857 L217.2,32.6242857 L213.88,32.6242857 L213.88,52.0642857 L217.2,52.0642857 Z M227.08,52.0642857 L227.08,37.9842857 C229,36.0242857 230.4,35.0242857 232.36,35.0242857 C234.92,35.0242857 236.04,36.5442857 236.04,40.1842857 L236.04,52.0642857 L239.36,52.0642857 L239.36,39.7442857 C239.36,34.7842857 237.52,32.1442857 233.4,32.1442857 C230.72,32.1442857 228.72,33.5842857 226.88,35.4242857 L226.76,35.4242857 L226.48,32.6242857 L223.76,32.6242857 L223.76,52.0642857 L227.08,52.0642857 Z M252.2,61.0242857 C258.24,61.0242857 262.04,57.9042857 262.04,54.2642857 C262.04,51.0642857 259.76,49.6242857 255.24,49.6242857 L251.48,49.6242857 C248.88,49.6242857 248.08,48.7442857 248.08,47.5442857 C248.08,46.4642857 248.6,45.8242857 249.32,45.2242857 C250.2,45.6642857 251.24,45.9042857 252.2,45.9042857 C256.16,45.9042857 259.32,43.3042857 259.32,39.1442857 C259.32,37.5042857 258.68,36.0642857 257.76,35.1842857 L261.72,35.1842857 L261.72,32.6242857 L254.96,32.6242857 C254.24,32.3442857 253.28,32.1442857 252.2,32.1442857 C248.24,32.1442857 244.88,34.8242857 244.88,39.0642857 C244.88,41.3842857 246.12,43.2642857 247.4,44.3042857 L247.4,44.4642857 C246.4,45.1442857 245.28,46.4242857 245.28,48.0642857 C245.28,49.5842857 246.04,50.6242857 247,51.2242857 L247,51.3842857 C245.24,52.5842857 244.16,54.1442857 244.16,55.7842857 C244.16,59.1442857 247.44,61.0242857 252.2,61.0242857 Z M252.2,43.6642857 C249.96,43.6642857 248.08,41.9042857 248.08,39.0642857 C248.08,36.2242857 249.92,34.5442857 252.2,34.5442857 C254.48,34.5442857 256.32,36.2642857 256.32,39.0642857 C256.32,41.9042857 254.44,43.6642857 252.2,43.6642857 Z M252.68,58.7042857 C249.16,58.7042857 247.04,57.4242857 247.04,55.3442857 C247.04,54.2242857 247.64,53.0642857 249.04,52.0642857 C249.88,52.3042857 250.8,52.3842857 251.56,52.3842857 L254.88,52.3842857 C257.44,52.3842857 258.8,52.9842857 258.8,54.7842857 C258.8,56.7842857 256.36,58.7042857 252.68,58.7042857 Z M282.08,57.1042857 L282.08,54.9042857 L263.04,54.9042857 L263.04,57.1042857 L282.08,57.1042857 Z M293.68,52.5442857 C296.36,52.5442857 298.44,51.7442857 300.12,50.5442857 L298.96,48.4242857 C297.6,49.3442857 295.96,49.8642857 294.08,49.8642857 C290.4,49.8642857 287.96,47.2242857 287.68,43.2242857 L300.76,43.2242857 C300.88,42.5842857 300.92,41.9842857 300.92,41.2642857 C300.92,35.6642857 298.08,32.1442857 293.12,32.1442857 C288.68,32.1442857 284.4,36.0242857 284.4,42.3442857 C284.4,48.7842857 288.48,52.5442857 293.68,52.5442857 Z M297.96,40.6642857 L287.68,40.6642857 C288.08,36.9442857 290.48,34.7842857 293.2,34.7842857 C296.16,34.7842857 297.96,36.8242857 297.96,40.6642857 Z M309,52.0642857 L309,37.9842857 C310.92,36.0242857 312.32,35.0242857 314.28,35.0242857 C316.84,35.0242857 317.96,36.5442857 317.96,40.1842857 L317.96,52.0642857 L321.28,52.0642857 L321.28,39.7442857 C321.28,34.7842857 319.44,32.1442857 315.32,32.1442857 C312.64,32.1442857 310.64,33.5842857 308.8,35.4242857 L308.68,35.4242857 L308.4,32.6242857 L305.68,32.6242857 L305.68,52.0642857 L309,52.0642857 Z M334.12,61.0242857 C340.16,61.0242857 343.96,57.9042857 343.96,54.2642857 C343.96,51.0642857 341.68,49.6242857 337.16,49.6242857 L333.4,49.6242857 C330.8,49.6242857 330,48.7442857 330,47.5442857 C330,46.4642857 330.52,45.8242857 331.24,45.2242857 C332.12,45.6642857 333.16,45.9042857 334.12,45.9042857 C338.08,45.9042857 341.24,43.3042857 341.24,39.1442857 C341.24,37.5042857 340.6,36.0642857 339.68,35.1842857 L343.64,35.1842857 L343.64,32.6242857 L336.88,32.6242857 C336.16,32.3442857 335.2,32.1442857 334.12,32.1442857 C330.16,32.1442857 326.8,34.8242857 326.8,39.0642857 C326.8,41.3842857 328.04,43.2642857 329.32,44.3042857 L329.32,44.4642857 C328.32,45.1442857 327.2,46.4242857 327.2,48.0642857 C327.2,49.5842857 327.96,50.6242857 328.92,51.2242857 L328.92,51.3842857 C327.16,52.5842857 326.08,54.1442857 326.08,55.7842857 C326.08,59.1442857 329.36,61.0242857 334.12,61.0242857 Z M334.12,43.6642857 C331.88,43.6642857 330,41.9042857 330,39.0642857 C330,36.2242857 331.84,34.5442857 334.12,34.5442857 C336.4,34.5442857 338.24,36.2642857 338.24,39.0642857 C338.24,41.9042857 336.36,43.6642857 334.12,43.6642857 Z M334.6,58.7042857 C331.08,58.7042857 328.96,57.4242857 328.96,55.3442857 C328.96,54.2242857 329.56,53.0642857 330.96,52.0642857 C331.8,52.3042857 332.72,52.3842857 333.48,52.3842857 L336.8,52.3842857 C339.36,52.3842857 340.72,52.9842857 340.72,54.7842857 C340.72,56.7842857 338.28,58.7042857 334.6,58.7042857 Z M349.44,28.6242857 C350.72,28.6242857 351.64,27.7842857 351.64,26.4642857 C351.64,25.1842857 350.72,24.3042857 349.44,24.3042857 C348.16,24.3042857 347.24,25.1842857 347.24,26.4642857 C347.24,27.7842857 348.16,28.6242857 349.44,28.6242857 Z M351.08,52.0642857 L351.08,32.6242857 L347.76,32.6242857 L347.76,52.0642857 L351.08,52.0642857 Z M360.96,52.0642857 L360.96,37.9842857 C362.88,36.0242857 364.28,35.0242857 366.24,35.0242857 C368.8,35.0242857 369.92,36.5442857 369.92,40.1842857 L369.92,52.0642857 L373.24,52.0642857 L373.24,39.7442857 C373.24,34.7842857 371.4,32.1442857 367.28,32.1442857 C364.6,32.1442857 362.6,33.5842857 360.76,35.4242857 L360.64,35.4242857 L360.36,32.6242857 L357.64,32.6242857 L357.64,52.0642857 L360.96,52.0642857 Z M387.36,52.5442857 C390.04,52.5442857 392.12,51.7442857 393.8,50.5442857 L392.64,48.4242857 C391.28,49.3442857 389.64,49.8642857 387.76,49.8642857 C384.08,49.8642857 381.64,47.2242857 381.36,43.2242857 L394.44,43.2242857 C394.56,42.5842857 394.6,41.9842857 394.6,41.2642857 C394.6,35.6642857 391.76,32.1442857 386.8,32.1442857 C382.36,32.1442857 378.08,36.0242857 378.08,42.3442857 C378.08,48.7842857 382.16,52.5442857 387.36,52.5442857 Z M391.64,40.6642857 L381.36,40.6642857 C381.76,36.9442857 384.16,34.7842857 386.88,34.7842857 C389.84,34.7842857 391.64,36.8242857 391.64,40.6642857 Z M415.6,57.1042857 L415.6,54.9042857 L396.56,54.9042857 L396.56,57.1042857 L415.6,57.1042857 Z M422.64,52.0642857 L422.64,46.9442857 L426.24,42.7442857 L431.92,52.0642857 L435.52,52.0642857 L428.2,40.4642857 L434.68,32.6242857 L430.96,32.6242857 L422.76,42.7842857 L422.64,42.7842857 L422.64,23.5842857 L419.36,23.5842857 L419.36,52.0642857 L422.64,52.0642857 Z M440.84,28.6242857 C442.12,28.6242857 443.04,27.7842857 443.04,26.4642857 C443.04,25.1842857 442.12,24.3042857 440.84,24.3042857 C439.56,24.3042857 438.64,25.1842857 438.64,26.4642857 C438.64,27.7842857 439.56,28.6242857 440.84,28.6242857 Z M442.48,52.0642857 L442.48,32.6242857 L439.16,32.6242857 L439.16,52.0642857 L442.48,52.0642857 Z M455.16,52.5442857 C456.48,52.5442857 457.8,52.1842857 458.84,51.7042857 L458.16,49.3442857 C457.36,49.7042857 456.64,49.8242857 455.92,49.8242857 C453.72,49.8242857 452.92,48.4642857 452.92,46.1042857 L452.92,35.3042857 L458.2,35.3042857 L458.2,32.6242857 L452.92,32.6242857 L452.92,26.3842857 L450.16,26.3842857 L449.76,32.6242857 L446.72,32.8242857 L446.72,35.3042857 L449.6,35.3042857 L449.6,46.0242857 C449.6,49.9042857 451,52.5442857 455.16,52.5442857 Z" id="scoring_engine_kit" fill="#333333" fill-rule="nonzero"></path>
            <g id="folder">
                <path d="M39.1952339,1.36598157 L43.8047661,6.63401843 C44.5643185,7.50207827 45.6616226,8 46.8150729,8 L92,8 C94.209139,8 96,9.790861 96,12 L96,70 L96,70 L4,70 C1.790861,70 -3.72626139e-15,68.209139 0,66 L0,4 C-2.705415e-16,1.790861 1.790861,2.18216909e-15 4,0 L36.1849271,0 C37.3383774,-1.10006381e-15 38.4356815,0.497921729 39.1952339,1.36598157 Z" id="Path" fill="#FCA65C"></path>
                <path d="M58.1952339,14.3659816 L62.8047661,19.6340184 C63.5643185,20.5020783 64.6616226,21 65.8150729,21 L96.1538462,21 C98.3629852,21 100.153846,22.790861 100.153846,25 L100.153846,70 L100.153846,70 L12,70 C9.790861,70 8,68.209139 8,66 L8,17 C8,14.790861 9.790861,13 12,13 L55.1849271,13 C56.3383774,13 57.4356815,13.4979217 58.1952339,14.3659816 Z" id="Path" fill="#73B0DE" transform="translate(54.076923, 41.500000) scale(-1, 1) translate(-54.076923, -41.500000) "></path>
                <path d="M9,58 L9,70 L4,70 L4.19964034,69.9951047 C6.31603153,69.8910789 8,68.1421954 8,66 L8,66 L8,58 L9,58 Z" id="Combined-Shape" fill="#73B0DE"></path>
            </g>
        </g>
        <g id="trees-icon-label" transform="translate(870.000000, 700.000000)">
            <path d="M130.76,52.48 C131.6,52.48 132.2,52.36 132.68,52.12 L132.24,49.64 C131.92,49.72 131.76,49.72 131.56,49.72 C131.04,49.72 130.6,49.36 130.6,48.32 L130.6,23.52 L127.28,23.52 L127.28,48.08 C127.28,50.88 128.28,52.48 130.76,52.48 Z M145.04,52.48 C149.8,52.48 154.08,48.76 154.08,42.32 C154.08,35.8 149.8,32.08 145.04,32.08 C140.28,32.08 136.04,35.8 136.04,42.32 C136.04,48.76 140.28,52.48 145.04,52.48 Z M145.04,49.72 C141.72,49.72 139.48,46.76 139.48,42.32 C139.48,37.84 141.72,34.84 145.04,34.84 C148.4,34.84 150.64,37.84 150.64,42.32 C150.64,46.76 148.4,49.72 145.04,49.72 Z M165.72,60.96 C171.76,60.96 175.56,57.84 175.56,54.2 C175.56,51 173.28,49.56 168.76,49.56 L165,49.56 C162.4,49.56 161.6,48.68 161.6,47.48 C161.6,46.4 162.12,45.76 162.84,45.16 C163.72,45.6 164.76,45.84 165.72,45.84 C169.68,45.84 172.84,43.24 172.84,39.08 C172.84,37.44 172.2,36 171.28,35.12 L175.24,35.12 L175.24,32.56 L168.48,32.56 C167.76,32.28 166.8,32.08 165.72,32.08 C161.76,32.08 158.4,34.76 158.4,39 C158.4,41.32 159.64,43.2 160.92,44.24 L160.92,44.4 C159.92,45.08 158.8,46.36 158.8,48 C158.8,49.52 159.56,50.56 160.52,51.16 L160.52,51.32 C158.76,52.52 157.68,54.08 157.68,55.72 C157.68,59.08 160.96,60.96 165.72,60.96 Z M165.72,43.6 C163.48,43.6 161.6,41.84 161.6,39 C161.6,36.16 163.44,34.48 165.72,34.48 C168,34.48 169.84,36.2 169.84,39 C169.84,41.84 167.96,43.6 165.72,43.6 Z M166.2,58.64 C162.68,58.64 160.56,57.36 160.56,55.28 C160.56,54.16 161.16,53 162.56,52 C163.4,52.24 164.32,52.32 165.08,52.32 L168.4,52.32 C170.96,52.32 172.32,52.92 172.32,54.72 C172.32,56.72 169.88,58.64 166.2,58.64 Z M181.04,28.56 C182.32,28.56 183.24,27.72 183.24,26.4 C183.24,25.12 182.32,24.24 181.04,24.24 C179.76,24.24 178.84,25.12 178.84,26.4 C178.84,27.72 179.76,28.56 181.04,28.56 Z M182.68,52 L182.68,32.56 L179.36,32.56 L179.36,52 L182.68,52 Z M192.56,52 L192.56,37.92 C194.48,35.96 195.88,34.96 197.84,34.96 C200.4,34.96 201.52,36.48 201.52,40.12 L201.52,52 L204.84,52 L204.84,39.68 C204.84,34.72 203,32.08 198.88,32.08 C196.2,32.08 194.2,33.52 192.36,35.36 L192.24,35.36 L191.96,32.56 L189.24,32.56 L189.24,52 L192.56,52 Z M218.68,52.48 C223.44,52.48 227.72,48.76 227.72,42.32 C227.72,35.8 223.44,32.08 218.68,32.08 C213.92,32.08 209.68,35.8 209.68,42.32 C209.68,48.76 213.92,52.48 218.68,52.48 Z M218.68,49.72 C215.36,49.72 213.12,46.76 213.12,42.32 C213.12,37.84 215.36,34.84 218.68,34.84 C222.04,34.84 224.28,37.84 224.28,42.32 C224.28,46.76 222.04,49.72 218.68,49.72 Z M236.12,52 L236.12,37.92 C237.92,35.92 239.52,34.96 240.96,34.96 C243.44,34.96 244.56,36.48 244.56,40.12 L244.56,52 L247.88,52 L247.88,37.92 C249.68,35.92 251.24,34.96 252.76,34.96 C255.2,34.96 256.36,36.48 256.36,40.12 L256.36,52 L259.68,52 L259.68,39.68 C259.68,34.72 257.76,32.08 253.76,32.08 C251.4,32.08 249.36,33.6 247.36,35.76 C246.56,33.48 244.96,32.08 241.96,32.08 C239.64,32.08 237.64,33.52 235.92,35.36 L235.8,35.36 L235.52,32.56 L232.8,32.56 L232.8,52 L236.12,52 Z M282.2,57.04 L282.2,54.84 L263.16,54.84 L263.16,57.04 L282.2,57.04 Z M291.04,52.48 C295.64,52.48 298.16,49.84 298.16,46.68 C298.16,43.16 295.24,41.84 292.2,40.76 C289.76,39.92 288.08,39.2 288.08,37.44 C288.08,36 289.16,34.64 291.64,34.64 C293.36,34.64 294.76,35.2 296.12,36.2 L297.64,34.28 C296.12,33 294.04,32.08 291.6,32.08 C287.36,32.08 284.88,34.48 284.88,37.6 C284.88,40.8 287.68,42.2 290.6,43.24 L291.038839,43.4008652 C293.0784,44.1571556 294.96,45.0133333 294.96,46.88 C294.96,48.56 293.72,49.88 291.16,49.88 C288.76,49.88 287,49.16 285.32,47.76 L283.8,49.68 C285.6,51.44 288.2,52.48 291.04,52.48 Z M310.4,52.48 C312.72,52.48 314.92,51.6 316.68,50 L315.24,47.88 C314.08,48.92 312.48,49.72 310.68,49.72 C307.12,49.72 304.72,46.76 304.72,42.32 C304.72,37.84 307.28,34.84 310.8,34.84 C312.36,34.84 313.6,35.44 314.68,36.44 L316.32,34.36 C314.96,33.08 313.2,32.08 310.64,32.08 C305.64,32.08 301.28,35.8 301.28,42.32 C301.28,48.76 305.24,52.48 310.4,52.48 Z M328.52,52.48 C333.28,52.48 337.56,48.76 337.56,42.32 C337.56,35.8 333.28,32.08 328.52,32.08 C323.76,32.08 319.52,35.8 319.52,42.32 C319.52,48.76 323.76,52.48 328.52,52.48 Z M328.52,49.72 C325.2,49.72 322.96,46.76 322.96,42.32 C322.96,37.84 325.2,34.84 328.52,34.84 C331.88,34.84 334.12,37.84 334.12,42.32 C334.12,46.76 331.88,49.72 328.52,49.72 Z M345.96,52 L345.96,39.52 C347.28,36.24 349.24,35.08 350.88,35.08 C351.64,35.08 352.08,35.16 352.64,35.32 L353.36,32.48 C352.76,32.2 352.16,32.08 351.28,32.08 C349.12,32.08 347.12,33.64 345.76,36.08 L345.64,36.08 L345.36,32.56 L342.64,32.56 L342.64,52 L345.96,52 Z M358.24,28.56 C359.52,28.56 360.44,27.72 360.44,26.4 C360.44,25.12 359.52,24.24 358.24,24.24 C356.96,24.24 356.04,25.12 356.04,26.4 C356.04,27.72 356.96,28.56 358.24,28.56 Z M359.88,52 L359.88,32.56 L356.56,32.56 L356.56,52 L359.88,52 Z M369.76,52 L369.76,37.92 C371.68,35.96 373.08,34.96 375.04,34.96 C377.6,34.96 378.72,36.48 378.72,40.12 L378.72,52 L382.04,52 L382.04,39.68 C382.04,34.72 380.2,32.08 376.08,32.08 C373.4,32.08 371.4,33.52 369.56,35.36 L369.44,35.36 L369.16,32.56 L366.44,32.56 L366.44,52 L369.76,52 Z M394.88,60.96 C400.92,60.96 404.72,57.84 404.72,54.2 C404.72,51 402.44,49.56 397.92,49.56 L394.16,49.56 C391.56,49.56 390.76,48.68 390.76,47.48 C390.76,46.4 391.28,45.76 392,45.16 C392.88,45.6 393.92,45.84 394.88,45.84 C398.84,45.84 402,43.24 402,39.08 C402,37.44 401.36,36 400.44,35.12 L404.4,35.12 L404.4,32.56 L397.64,32.56 C396.92,32.28 395.96,32.08 394.88,32.08 C390.92,32.08 387.56,34.76 387.56,39 C387.56,41.32 388.8,43.2 390.08,44.24 L390.08,44.4 C389.08,45.08 387.96,46.36 387.96,48 C387.96,49.52 388.72,50.56 389.68,51.16 L389.68,51.32 C387.92,52.52 386.84,54.08 386.84,55.72 C386.84,59.08 390.12,60.96 394.88,60.96 Z M394.88,43.6 C392.64,43.6 390.76,41.84 390.76,39 C390.76,36.16 392.6,34.48 394.88,34.48 C397.16,34.48 399,36.2 399,39 C399,41.84 397.12,43.6 394.88,43.6 Z M395.36,58.64 C391.84,58.64 389.72,57.36 389.72,55.28 C389.72,54.16 390.32,53 391.72,52 C392.56,52.24 393.48,52.32 394.24,52.32 L397.56,52.32 C400.12,52.32 401.48,52.92 401.48,54.72 C401.48,56.72 399.04,58.64 395.36,58.64 Z M424.76,57.04 L424.76,54.84 L405.72,54.84 L405.72,57.04 L424.76,57.04 Z M436.36,52.48 C439.04,52.48 441.12,51.68 442.8,50.48 L441.64,48.36 C440.28,49.28 438.64,49.8 436.76,49.8 C433.08,49.8 430.64,47.16 430.36,43.16 L443.44,43.16 C443.56,42.52 443.6,41.92 443.6,41.2 C443.6,35.6 440.76,32.08 435.8,32.08 C431.36,32.08 427.08,35.96 427.08,42.28 C427.08,48.72 431.16,52.48 436.36,52.48 Z M440.64,40.6 L430.36,40.6 C430.76,36.88 433.16,34.72 435.88,34.72 C438.84,34.72 440.64,36.76 440.64,40.6 Z M451.68,52 L451.68,37.92 C453.6,35.96 455,34.96 456.96,34.96 C459.52,34.96 460.64,36.48 460.64,40.12 L460.64,52 L463.96,52 L463.96,39.68 C463.96,34.72 462.12,32.08 458,32.08 C455.32,32.08 453.32,33.52 451.48,35.36 L451.36,35.36 L451.08,32.56 L448.36,32.56 L448.36,52 L451.68,52 Z M476.8,60.96 C482.84,60.96 486.64,57.84 486.64,54.2 C486.64,51 484.36,49.56 479.84,49.56 L476.08,49.56 C473.48,49.56 472.68,48.68 472.68,47.48 C472.68,46.4 473.2,45.76 473.92,45.16 C474.8,45.6 475.84,45.84 476.8,45.84 C480.76,45.84 483.92,43.24 483.92,39.08 C483.92,37.44 483.28,36 482.36,35.12 L486.32,35.12 L486.32,32.56 L479.56,32.56 C478.84,32.28 477.88,32.08 476.8,32.08 C472.84,32.08 469.48,34.76 469.48,39 C469.48,41.32 470.72,43.2 472,44.24 L472,44.4 C471,45.08 469.88,46.36 469.88,48 C469.88,49.52 470.64,50.56 471.6,51.16 L471.6,51.32 C469.84,52.52 468.76,54.08 468.76,55.72 C468.76,59.08 472.04,60.96 476.8,60.96 Z M476.8,43.6 C474.56,43.6 472.68,41.84 472.68,39 C472.68,36.16 474.52,34.48 476.8,34.48 C479.08,34.48 480.92,36.2 480.92,39 C480.92,41.84 479.04,43.6 476.8,43.6 Z M477.28,58.64 C473.76,58.64 471.64,57.36 471.64,55.28 C471.64,54.16 472.24,53 473.64,52 C474.48,52.24 475.4,52.32 476.16,52.32 L479.48,52.32 C482.04,52.32 483.4,52.92 483.4,54.72 C483.4,56.72 480.96,58.64 477.28,58.64 Z M492.12,28.56 C493.4,28.56 494.32,27.72 494.32,26.4 C494.32,25.12 493.4,24.24 492.12,24.24 C490.84,24.24 489.92,25.12 489.92,26.4 C489.92,27.72 490.84,28.56 492.12,28.56 Z M493.76,52 L493.76,32.56 L490.44,32.56 L490.44,52 L493.76,52 Z M503.64,52 L503.64,37.92 C505.56,35.96 506.96,34.96 508.92,34.96 C511.48,34.96 512.6,36.48 512.6,40.12 L512.6,52 L515.92,52 L515.92,39.68 C515.92,34.72 514.08,32.08 509.96,32.08 C507.28,32.08 505.28,33.52 503.44,35.36 L503.32,35.36 L503.04,32.56 L500.32,32.56 L500.32,52 L503.64,52 Z M530.04,52.48 C532.72,52.48 534.8,51.68 536.48,50.48 L535.32,48.36 C533.96,49.28 532.32,49.8 530.44,49.8 C526.76,49.8 524.32,47.16 524.04,43.16 L537.12,43.16 C537.24,42.52 537.28,41.92 537.28,41.2 C537.28,35.6 534.44,32.08 529.48,32.08 C525.04,32.08 520.76,35.96 520.76,42.28 C520.76,48.72 524.84,52.48 530.04,52.48 Z M534.32,40.6 L524.04,40.6 C524.44,36.88 526.84,34.72 529.56,34.72 C532.52,34.72 534.32,36.76 534.32,40.6 Z M558.28,57.04 L558.28,54.84 L539.24,54.84 L539.24,57.04 L558.28,57.04 Z M565.32,52 L565.32,46.88 L568.92,42.68 L574.6,52 L578.2,52 L570.88,40.4 L577.36,32.56 L573.64,32.56 L565.44,42.72 L565.32,42.72 L565.32,23.52 L562.04,23.52 L562.04,52 L565.32,52 Z M583.52,28.56 C584.8,28.56 585.72,27.72 585.72,26.4 C585.72,25.12 584.8,24.24 583.52,24.24 C582.24,24.24 581.32,25.12 581.32,26.4 C581.32,27.72 582.24,28.56 583.52,28.56 Z M585.16,52 L585.16,32.56 L581.84,32.56 L581.84,52 L585.16,52 Z M597.84,52.48 C599.16,52.48 600.48,52.12 601.52,51.64 L600.84,49.28 C600.04,49.64 599.32,49.76 598.6,49.76 C596.4,49.76 595.6,48.4 595.6,46.04 L595.6,35.24 L600.88,35.24 L600.88,32.56 L595.6,32.56 L595.6,26.32 L592.84,26.32 L592.44,32.56 L589.4,32.76 L589.4,35.24 L592.28,35.24 L592.28,45.96 C592.28,49.84 593.68,52.48 597.84,52.48 Z M607,52.48 C608.32,52.48 609.4,51.44 609.4,49.96 C609.4,48.44 608.32,47.4 607,47.4 C605.68,47.4 604.6,48.44 604.6,49.96 C604.6,51.44 605.68,52.48 607,52.48 Z M618.76,52.48 C619.6,52.48 620.2,52.36 620.68,52.12 L620.24,49.64 C619.92,49.72 619.76,49.72 619.56,49.72 C619.04,49.72 618.6,49.36 618.6,48.32 L618.6,23.52 L615.28,23.52 L615.28,48.08 C615.28,50.88 616.28,52.48 618.76,52.48 Z M632.04,60.96 C638.08,60.96 641.88,57.84 641.88,54.2 C641.88,51 639.6,49.56 635.08,49.56 L631.32,49.56 C628.72,49.56 627.92,48.68 627.92,47.48 C627.92,46.4 628.44,45.76 629.16,45.16 C630.04,45.6 631.08,45.84 632.04,45.84 C636,45.84 639.16,43.24 639.16,39.08 C639.16,37.44 638.52,36 637.6,35.12 L641.56,35.12 L641.56,32.56 L634.8,32.56 C634.08,32.28 633.12,32.08 632.04,32.08 C628.08,32.08 624.72,34.76 624.72,39 C624.72,41.32 625.96,43.2 627.24,44.24 L627.24,44.4 C626.24,45.08 625.12,46.36 625.12,48 C625.12,49.52 625.88,50.56 626.84,51.16 L626.84,51.32 C625.08,52.52 624,54.08 624,55.72 C624,59.08 627.28,60.96 632.04,60.96 Z M632.04,43.6 C629.8,43.6 627.92,41.84 627.92,39 C627.92,36.16 629.76,34.48 632.04,34.48 C634.32,34.48 636.16,36.2 636.16,39 C636.16,41.84 634.28,43.6 632.04,43.6 Z M632.52,58.64 C629,58.64 626.88,57.36 626.88,55.28 C626.88,54.16 627.48,53 628.88,52 C629.72,52.24 630.64,52.32 631.4,52.32 L634.72,52.32 C637.28,52.32 638.64,52.92 638.64,54.72 C638.64,56.72 636.2,58.64 632.52,58.64 Z M649,60.2 L649,53.64 L648.92,50.24 C650.68,51.64 652.52,52.48 654.28,52.48 C658.72,52.48 662.72,48.6 662.72,42 C662.72,35.96 660,32.08 655,32.08 C652.76,32.08 650.56,33.32 648.8,34.8 L648.68,34.8 L648.4,32.56 L645.68,32.56 L645.68,60.2 L649,60.2 Z M653.72,49.68 C652.44,49.68 650.76,49.16 649,47.68 L649,37.52 C650.88,35.76 652.52,34.88 654.16,34.88 C657.8,34.88 659.28,37.72 659.28,42 C659.28,46.8 656.92,49.68 653.72,49.68 Z" id="loginom_scoring_engine_kit.lgp" fill="#333333" fill-rule="nonzero"></path>
            <g id="Group">
                <path d="M64,0 C66.209139,-4.05812251e-16 68,1.790861 68,4 L68,66 C68,68.209139 66.209139,70 64,70 L60,70 C62.209139,70 64,68.209139 64,66 L64,66 L64,4 C64,1.790861 62.209139,-4.05812251e-16 60,0 L60,0 L64,0 Z" id="Combined-Shape" fill="#FCA65C"></path>
                <path d="M72,0 C74.209139,-4.05812251e-16 76,1.790861 76,4 L76,66 C76,68.209139 74.209139,70 72,70 L68,70 C70.209139,70 72,68.209139 72,66 L72,66 L72,4 C72,1.790861 70.209139,-4.05812251e-16 68,0 L68,0 L72,0 Z" id="Combined-Shape" fill="#FCA65C"></path>
                <path d="M80,0 C82.209139,-4.05812251e-16 84,1.790861 84,4 L84,66 C84,68.209139 82.209139,70 80,70 L76,70 C78.209139,70 80,68.209139 80,66 L80,66 L80,4 C80,1.790861 78.209139,-4.05812251e-16 76,0 L76,0 L80,0 Z" id="Combined-Shape" fill="#FCA65C"></path>
                <rect id="Rectangle" fill="#73B0DE" x="0" y="0" width="60" height="70" rx="4"></rect>
                <g transform="translate(12.000000, 22.000000)" fill="#F9F9F9" id="Rectangle">
                    <rect x="0" y="0" width="36" height="2" rx="1"></rect>
                    <rect x="0" y="6" width="36" height="2" rx="1"></rect>
                    <rect x="0" y="12" width="36" height="2" rx="1"></rect>
                    <rect x="0" y="18" width="36" height="2" rx="1"></rect>
                    <rect x="0" y="24" width="25" height="2" rx="1"></rect>
                </g>
            </g>
        </g>
        <g id="Arrow/Gray-Circle/L-Shape-Copy" transform="translate(636.000000, 568.500000) rotate(-180.000000) translate(-636.000000, -568.500000) translate(586.000000, 519.000000)">
            <path d="M16,10 L90,10 L90,83" id="Path-4" stroke="#9A9FAF" stroke-width="4" stroke-dasharray="6"></path>
            <g id="Start-point" transform="translate(80.000000, 79.000000)" filter="url(#filter-5)">
                <g transform="translate(10.000000, 10.000000) rotate(90.000000) translate(-10.000000, -10.000000) ">
                    <path d="M10,0 C15.5228475,0 20,4.4771525 20,10 C20,15.5228475 15.5228475,20 10,20 C4.4771525,20 0,15.5228475 0,10 C0,4.4771525 4.4771525,0 10,0 Z M10,6 C7.790861,6 6,7.790861 6,10 C6,12.209139 7.790861,14 10,14 C12.209139,14 14,12.209139 14,10 C14,7.790861 12.209139,6 10,6 Z" id="Shape" fill="#F7931E"></path>
                </g>
            </g>
            <g id="Start-point" filter="url(#filter-6)">
                <g transform="translate(10.000000, 10.000000) rotate(90.000000) translate(-10.000000, -10.000000) ">
                    <path d="M10,0 C15.5228475,0 20,4.4771525 20,10 C20,15.5228475 15.5228475,20 10,20 C4.4771525,20 0,15.5228475 0,10 C0,4.4771525 4.4771525,0 10,0 Z M10,6 C7.790861,6 6,7.790861 6,10 C6,12.209139 7.790861,14 10,14 C12.209139,14 14,12.209139 14,10 C14,7.790861 12.209139,6 10,6 Z" id="Shape" fill="#F7931E"></path>
                </g>
            </g>
        </g>
        <g id="Arrow/Gray-Circle/L-Shape-Copy" transform="translate(798.000000, 697.000000) rotate(-180.000000) translate(-798.000000, -697.000000) translate(748.000000, 650.000000)">
            <path d="M16,10 L90,10 L90,78" id="Path-4" stroke="#9A9FAF" stroke-width="4" stroke-dasharray="6"></path>
            <g id="Start-point" transform="translate(80.000000, 74.000000)" filter="url(#filter-7)">
                <g transform="translate(10.000000, 10.000000) rotate(90.000000) translate(-10.000000, -10.000000) ">
                    <path d="M10,0 C15.5228475,0 20,4.4771525 20,10 C20,15.5228475 15.5228475,20 10,20 C4.4771525,20 0,15.5228475 0,10 C0,4.4771525 4.4771525,0 10,0 Z M10,6 C7.790861,6 6,7.790861 6,10 C6,12.209139 7.790861,14 10,14 C12.209139,14 14,12.209139 14,10 C14,7.790861 12.209139,6 10,6 Z" id="Shape" fill="#F7931E"></path>
                </g>
            </g>
            <g id="Start-point" filter="url(#filter-8)">
                <g transform="translate(10.000000, 10.000000) rotate(90.000000) translate(-10.000000, -10.000000) ">
                    <path d="M10,0 C15.5228475,0 20,4.4771525 20,10 C20,15.5228475 15.5228475,20 10,20 C4.4771525,20 0,15.5228475 0,10 C0,4.4771525 4.4771525,0 10,0 Z M10,6 C7.790861,6 6,7.790861 6,10 C6,12.209139 7.790861,14 10,14 C12.209139,14 14,12.209139 14,10 C14,7.790861 12.209139,6 10,6 Z" id="Shape" fill="#F7931E"></path>
                </g>
            </g>
        </g>
    </g>
</svg>